<?xml version="1.0" encoding="utf-8"?>
<!-- Generator: Adobe Illustrator 24.1.1, SVG Export Plug-In . SVG Version: 6.00 Build 0)  -->
<svg version="1.1" id="圖層_1" xmlns="http://www.w3.org/2000/svg" xmlns:xlink="http://www.w3.org/1999/xlink" x="0px" y="0px"
	 viewBox="0 0 400 80" style="enable-background:new 0 0 400 80;" xml:space="preserve">
<style type="text/css">
	.st0{fill:#80B7E4;}
</style>
<g>
	<path class="st0" d="M49.17,61.5c-6.94,5.82-13.45,8.56-20.64,8.56C12.76,70.06,0,56.62,0,40C0,23.21,13.02,9.68,29.12,9.68
		c7.02,0,13.96,2.74,19.7,7.71l-4.97,8.22c-4.97-4.54-9.94-6.68-15.16-6.68c-10.79,0-19.87,9.51-19.87,20.9
		c0,11.39,9.08,20.98,20.04,20.98c5.14,0,8.91-1.63,14.39-6.25L49.17,61.5z"/>
	<path class="st0" d="M78.35,69.72c-0.6-0.77-1.11-2.74-1.37-4.97c-2.91,3.6-5.74,4.97-10.02,4.97c-8.14,0-13.79-5.91-13.79-14.39
		c0-8.65,6.17-14.9,14.65-14.9c2.65,0,4.63,0.51,7.79,2.05c0.08-0.6,0.17-1.11,0.17-1.37c0-3.68-2.83-6.42-6.59-6.42
		c-2.91,0-6.6,1.03-10.02,2.83l-3.43-6.68c5.57-2.65,9.68-3.77,13.79-3.77c4.71,0,8.99,1.8,11.48,4.71
		c1.88,2.4,2.65,5.31,2.65,10.79v0.6v0.43l-0.09,10.02v2.05c0,4.28,0.86,9.25,2.14,11.74L78.35,69.72z M60.87,55.16
		c0,4.11,3.34,7.45,7.45,7.45c4.37,0,7.79-3.26,7.79-7.37c0-4.28-3.17-7.37-7.54-7.37C64.13,47.88,60.87,50.96,60.87,55.16"/>
	<path class="st0" d="M117.2,66.38c-2.49,1.88-6.68,3.25-10.28,3.25c-3.42,0-6.85-1.46-8.99-3.94c-2.65-2.82-3.77-7.88-3.77-16.27
		v-3.25v-0.51v-6.08h-4.2l-0.09-8.14l4.2-0.08v-7.11h8.82v7.11l11.73-0.09v8.22H102.9v10.11c0,5.31,0.17,6.94,1.2,8.74
		c1.2,2.05,2.83,3.17,4.71,3.17c1.71,0,3.86-0.69,5.4-1.72L117.2,66.38z"/>
	<path class="st0" d="M161.32,57.73c4.97,3.51,7.11,4.45,10.19,4.45c3.26,0,5.4-1.63,5.4-4.11c0-2.4-1.88-3.94-6.51-5.14
		c-5.74-1.54-8.56-3-10.53-5.57c-1.71-2.23-2.57-4.54-2.57-6.94c0-7.28,6.68-13.53,14.56-13.53c4.54,0,8.82,1.71,13.79,5.48
		l-4.37,6.77c-3.6-3.09-6.42-4.28-9.85-4.28c-3.17,0-5.31,1.71-5.31,4.28c0,2.48,1.28,3.34,7.88,5.4c5.14,1.54,7.79,3,9.42,5.14
		c1.54,1.97,2.4,4.45,2.4,7.11c0,7.71-6.17,13.53-14.39,13.53c-5.14,0-10.28-1.97-14.82-5.82L161.32,57.73z"/>
	<path class="st0" d="M241.27,66.38c-2.49,1.88-6.68,3.25-10.28,3.25c-3.42,0-6.85-1.46-8.99-3.94c-2.65-2.82-3.77-7.88-3.77-16.27
		v-3.25v-0.51v-6.08h-4.2l-0.09-8.14l4.2-0.08v-7.11h8.82v7.11l11.73-0.09v8.22h-11.73v10.11c0,5.31,0.17,6.94,1.2,8.74
		c1.2,2.05,2.83,3.17,4.71,3.17c1.71,0,3.86-0.69,5.4-1.72L241.27,66.38z"/>
	<path class="st0" d="M270.65,69.72c-0.6-0.77-1.11-2.74-1.37-4.97c-2.91,3.6-5.74,4.97-10.02,4.97c-8.14,0-13.79-5.91-13.79-14.39
		c0-8.65,6.17-14.9,14.65-14.9c2.65,0,4.63,0.51,7.79,2.05c0.08-0.6,0.17-1.11,0.17-1.37c0-3.68-2.83-6.42-6.59-6.42
		c-2.91,0-6.6,1.03-10.02,2.83l-3.43-6.68c5.57-2.65,9.68-3.77,13.79-3.77c4.71,0,8.99,1.8,11.48,4.71
		c1.88,2.4,2.65,5.31,2.65,10.79v0.6v0.43l-0.09,10.02v2.05c0,4.28,0.86,9.25,2.14,11.74L270.65,69.72z M253.17,55.16
		c0,4.11,3.34,7.45,7.45,7.45c4.37,0,7.79-3.26,7.79-7.37c0-4.28-3.17-7.37-7.54-7.37C256.43,47.88,253.17,50.96,253.17,55.16"/>
	<path class="st0" d="M289.58,57.73c4.97,3.51,7.11,4.45,10.19,4.45c3.26,0,5.4-1.63,5.4-4.11c0-2.4-1.88-3.94-6.51-5.14
		c-5.74-1.54-8.56-3-10.54-5.57c-1.71-2.23-2.57-4.54-2.57-6.94c0-7.28,6.68-13.53,14.56-13.53c4.54,0,8.82,1.71,13.79,5.48
		l-4.37,6.77c-3.6-3.09-6.42-4.28-9.85-4.28c-3.17,0-5.31,1.71-5.31,4.28c0,2.48,1.28,3.34,7.88,5.4c5.14,1.54,7.79,3,9.42,5.14
		c1.54,1.97,2.4,4.45,2.4,7.11c0,7.71-6.17,13.53-14.39,13.53c-5.14,0-10.28-1.97-14.82-5.82L289.58,57.73z"/>
	<path class="st0" d="M347.14,66.38c-2.49,1.88-6.68,3.25-10.28,3.25c-3.42,0-6.85-1.46-8.99-3.94c-2.65-2.82-3.77-7.88-3.77-16.27
		v-3.25v-0.51v-6.08h-4.2l-0.08-8.14l4.19-0.08v-7.11h8.82v7.11l11.73-0.09v8.22h-11.73v10.11c0,5.31,0.17,6.94,1.2,8.74
		c1.2,2.05,2.83,3.17,4.71,3.17c1.71,0,3.86-0.69,5.4-1.72L347.14,66.38z"/>
	<path class="st0" d="M386.12,61.84c-5.74,5.91-10.11,8.14-16.02,8.14c-11.22,0-19.78-9.08-19.78-21.07
		c0-12.42,8.39-21.67,19.53-21.67c11.31,0,19.36,8.82,19.36,21.24c0,1.11-0.08,1.71-0.26,2.74l-30.15,0.17
		c0.69,6.17,5.48,10.96,11.14,10.96c3.94,0,7.79-1.88,10.62-5.14L386.12,61.84z M380.29,43.94c-0.17-4.97-4.71-8.99-10.19-8.99
		c-5.31,0-9.94,3.77-11.05,9.08L380.29,43.94z"/>
	<path class="st0" d="M145.72,34.48c-0.69-0.5-1.47-1.12-2.16-1.84c0.25-0.39,0.5-0.77,0.73-1.17c3.2-5.38,5.46-12.44,0.14-15.27
		c-3.56-1.89-6.58,1-7.53,3.39c-1.29-0.84-2.88-1.83-4.5-2.1c-3.44-0.57-5.92,2.44-5.53,5.68c0.36,2.94,3.43,4.35,5.54,5.96
		c1.25,0.95,2.88,1.23,2.36,2.87c-0.94,2.93-4.85,3.96-7.54,4.38c-2.89,0.45-5.83,0.29-8.74,0.17c0,0-0.01,8.34-0.01,8.34
		c6.09,0.72,12.72-0.43,17.64-4.2c1.21-0.93,2.37-1.96,3.45-3.08c2.42,2.97,5.82,5.18,9.4,6.5c0,0,3.15-6.2,3.15-6.2
		C149.94,36.9,147.69,35.9,145.72,34.48"/>
	<path class="st0" d="M400,28.02c0,3.39-2.76,6.15-6.13,6.15c-3.39,0-6.15-2.76-6.15-6.15c0-3.39,2.76-6.15,6.15-6.15
		C397.24,21.87,400,24.63,400,28.02 M398.67,28.02c0-2.66-2.14-4.8-4.8-4.8s-4.8,2.14-4.8,4.8c0,2.66,2.14,4.79,4.8,4.79
		S398.67,30.68,398.67,28.02 M395.36,28.63l1.31,2.68h-1.53L394,28.87h-0.96v2.44h-1.38V24.7h2.68c1.41,0,2.11,0.71,2.11,2.01
		C396.44,27.64,396.08,28.3,395.36,28.63 M393.04,25.88v1.8h1.15c0.62,0,0.86-0.25,0.86-0.95c0-0.63-0.27-0.85-0.83-0.85H393.04z"/>
</g>
</svg>
