<?xml version="1.0" encoding="utf-8"?>
<!-- Generator: Adobe Illustrator 24.1.1, SVG Export Plug-In . SVG Version: 6.00 Build 0)  -->
<svg version="1.1" id="圖層_1" xmlns="http://www.w3.org/2000/svg" xmlns:xlink="http://www.w3.org/1999/xlink" x="0px" y="0px"
	 viewBox="0 0 240 48" style="enable-background:new 0 0 240 48;" xml:space="preserve">
<style type="text/css">
	.st0{fill:#474848;}
</style>
<g>
	<path class="st0" d="M29.5,36.9c-4.16,3.49-8.07,5.14-12.39,5.14C7.66,42.04,0,33.97,0,24C0,13.93,7.81,5.81,17.47,5.81
		c4.21,0,8.38,1.64,11.82,4.63l-2.98,4.93c-2.98-2.72-5.96-4.01-9.1-4.01c-6.48,0-11.92,5.7-11.92,12.54
		c0,6.84,5.45,12.59,12.03,12.59c3.08,0,5.35-0.98,8.63-3.75L29.5,36.9z"/>
	<path class="st0" d="M47.01,41.83c-0.36-0.46-0.67-1.64-0.82-2.98c-1.75,2.16-3.44,2.98-6.01,2.98c-4.88,0-8.27-3.55-8.27-8.63
		c0-5.19,3.7-8.94,8.79-8.94c1.59,0,2.78,0.31,4.68,1.23c0.05-0.36,0.1-0.67,0.1-0.82c0-2.21-1.7-3.85-3.96-3.85
		c-1.75,0-3.96,0.62-6.01,1.7l-2.06-4.01c3.34-1.59,5.81-2.26,8.27-2.26c2.83,0,5.4,1.08,6.89,2.83c1.13,1.44,1.59,3.19,1.59,6.48
		v0.36v0.26l-0.05,6.01v1.23c0,2.57,0.51,5.55,1.28,7.04L47.01,41.83z M36.52,33.1c0,2.47,2,4.47,4.47,4.47
		c2.62,0,4.68-1.95,4.68-4.42c0-2.57-1.9-4.42-4.52-4.42C38.48,28.73,36.52,30.58,36.52,33.1"/>
	<path class="st0" d="M70.32,39.83c-1.49,1.13-4.01,1.95-6.17,1.95c-2.05,0-4.11-0.87-5.4-2.36c-1.59-1.69-2.26-4.73-2.26-9.76V27.7
		v-0.31v-3.65h-2.52l-0.05-4.88l2.52-0.05v-4.27h5.29v4.27l7.04-0.05v4.93h-7.04v6.06c0,3.19,0.1,4.16,0.72,5.24
		c0.72,1.23,1.7,1.9,2.83,1.9c1.03,0,2.31-0.41,3.24-1.03L70.32,39.83z"/>
	<path class="st0" d="M96.79,34.64c2.98,2.11,4.27,2.67,6.12,2.67c1.95,0,3.24-0.98,3.24-2.47c0-1.44-1.13-2.36-3.91-3.08
		c-3.44-0.92-5.14-1.8-6.32-3.34c-1.03-1.34-1.54-2.72-1.54-4.16c0-4.37,4.01-8.12,8.74-8.12c2.72,0,5.29,1.03,8.27,3.29l-2.62,4.06
		c-2.16-1.85-3.85-2.57-5.91-2.57c-1.9,0-3.19,1.03-3.19,2.57c0,1.49,0.77,2,4.73,3.24c3.08,0.92,4.68,1.8,5.65,3.08
		c0.93,1.18,1.44,2.67,1.44,4.27c0,4.63-3.7,8.12-8.63,8.12c-3.08,0-6.17-1.18-8.89-3.49L96.79,34.64z"/>
	<path class="st0" d="M144.76,39.83c-1.49,1.13-4.01,1.95-6.17,1.95c-2.05,0-4.11-0.87-5.4-2.36c-1.59-1.69-2.26-4.73-2.26-9.76
		V27.7v-0.31v-3.65h-2.52l-0.05-4.88l2.52-0.05v-4.27h5.29v4.27l7.04-0.05v4.93h-7.04v6.06c0,3.19,0.1,4.16,0.72,5.24
		c0.72,1.23,1.7,1.9,2.83,1.9c1.03,0,2.31-0.41,3.24-1.03L144.76,39.83z"/>
	<path class="st0" d="M162.39,41.83c-0.36-0.46-0.67-1.64-0.82-2.98c-1.75,2.16-3.44,2.98-6.01,2.98c-4.88,0-8.27-3.55-8.27-8.63
		c0-5.19,3.7-8.94,8.79-8.94c1.59,0,2.78,0.31,4.68,1.23c0.05-0.36,0.1-0.67,0.1-0.82c0-2.21-1.7-3.85-3.96-3.85
		c-1.75,0-3.96,0.62-6.01,1.7l-2.06-4.01c3.34-1.59,5.81-2.26,8.27-2.26c2.83,0,5.4,1.08,6.89,2.83c1.13,1.44,1.59,3.19,1.59,6.48
		v0.36v0.26l-0.05,6.01v1.23c0,2.57,0.51,5.55,1.28,7.04L162.39,41.83z M151.9,33.1c0,2.47,2,4.47,4.47,4.47
		c2.62,0,4.68-1.95,4.68-4.42c0-2.57-1.9-4.42-4.52-4.42C153.86,28.73,151.9,30.58,151.9,33.1"/>
	<path class="st0" d="M173.75,34.64c2.98,2.11,4.27,2.67,6.12,2.67c1.95,0,3.24-0.98,3.24-2.47c0-1.44-1.13-2.36-3.91-3.08
		c-3.44-0.92-5.14-1.8-6.32-3.34c-1.03-1.34-1.54-2.72-1.54-4.16c0-4.37,4.01-8.12,8.74-8.12c2.72,0,5.29,1.03,8.27,3.29l-2.62,4.06
		c-2.16-1.85-3.85-2.57-5.91-2.57c-1.9,0-3.19,1.03-3.19,2.57c0,1.49,0.77,2,4.73,3.24c3.08,0.92,4.68,1.8,5.65,3.08
		c0.93,1.18,1.44,2.67,1.44,4.27c0,4.63-3.7,8.12-8.63,8.12c-3.08,0-6.17-1.18-8.89-3.49L173.75,34.64z"/>
	<path class="st0" d="M208.29,39.83c-1.49,1.13-4.01,1.95-6.17,1.95c-2.05,0-4.11-0.87-5.4-2.36c-1.59-1.69-2.26-4.73-2.26-9.76
		V27.7v-0.31v-3.65h-2.52l-0.05-4.88l2.52-0.05v-4.27h5.29v4.27l7.04-0.05v4.93h-7.04v6.06c0,3.19,0.1,4.16,0.72,5.24
		c0.72,1.23,1.7,1.9,2.83,1.9c1.03,0,2.31-0.41,3.24-1.03L208.29,39.83z"/>
	<path class="st0" d="M231.67,37.11c-3.44,3.55-6.06,4.88-9.61,4.88c-6.73,0-11.87-5.45-11.87-12.64c0-7.45,5.04-13,11.72-13
		c6.78,0,11.61,5.29,11.61,12.74c0,0.67-0.05,1.03-0.15,1.64l-18.09,0.1c0.41,3.7,3.29,6.58,6.68,6.58c2.36,0,4.68-1.13,6.37-3.08
		L231.67,37.11z M228.18,26.36c-0.1-2.98-2.83-5.4-6.12-5.4c-3.19,0-5.96,2.26-6.63,5.45L228.18,26.36z"/>
	<path class="st0" d="M87.43,20.69c-0.41-0.3-0.88-0.67-1.29-1.1c0.15-0.23,0.3-0.46,0.44-0.7c1.92-3.23,3.28-7.46,0.08-9.16
		c-2.13-1.14-3.95,0.6-4.52,2.03c-0.77-0.5-1.73-1.1-2.7-1.26c-2.07-0.34-3.55,1.47-3.32,3.41c0.21,1.76,2.06,2.61,3.32,3.57
		c0.75,0.57,1.73,0.74,1.42,1.72c-0.56,1.76-2.91,2.38-4.52,2.63c-1.73,0.27-3.5,0.17-5.24,0.1c0,0-0.01,5.01-0.01,5.01
		c3.66,0.43,7.63-0.26,10.59-2.52c0.73-0.56,1.42-1.18,2.07-1.85c1.45,1.78,3.49,3.11,5.64,3.9c0,0,1.89-3.72,1.89-3.72
		C89.96,22.14,88.62,21.54,87.43,20.69"/>
	<path class="st0" d="M240,16.81c0,2.03-1.66,3.69-3.68,3.69c-2.03,0-3.69-1.66-3.69-3.69c0-2.03,1.66-3.69,3.69-3.69
		C238.34,13.12,240,14.78,240,16.81 M239.2,16.81c0-1.6-1.29-2.88-2.88-2.88s-2.88,1.29-2.88,2.88c0,1.6,1.29,2.87,2.88,2.87
		S239.2,18.41,239.2,16.81 M237.22,17.18l0.79,1.61h-0.92l-0.69-1.47h-0.58v1.47h-0.83v-3.97h1.61c0.85,0,1.27,0.43,1.27,1.21
		C237.87,16.58,237.65,16.98,237.22,17.18 M235.82,15.53v1.08h0.69c0.37,0,0.52-0.15,0.52-0.57c0-0.38-0.16-0.51-0.5-0.51H235.82z"
		/>
</g>
</svg>
